<svg width="33" height="33" viewBox="0 0 33 33" fill="none" xmlns="http://www.w3.org/2000/svg">
<path d="M16.5 31.2812C24.6635 31.2812 31.2812 24.6635 31.2812 16.5C31.2812 8.33654 24.6635 1.71875 16.5 1.71875C8.33654 1.71875 1.71875 8.33654 1.71875 16.5C1.71875 24.6635 8.33654 31.2812 16.5 31.2812Z" stroke="#EEB73E" stroke-linecap="round" stroke-linejoin="round"/>
<path d="M7.62109 6.66602C7.81838 6.47732 8.05816 6.33884 8.3202 6.26226C8.58225 6.18568 8.85886 6.17325 9.12672 6.22602L10.1202 6.42196L10.1972 7.23183L8.6049 7.62852L8.68397 8.36002L10.9967 9.33283V7.39546L12.327 7.7399L12.5869 8.52365L13.3294 7.93515L14.1771 9.37133L12.1091 10.0643L12.6453 10.7786L10.9823 11.6408C10.7227 11.7753 10.5137 11.9905 10.3869 12.254L10.1463 12.7552C10.0518 12.9513 9.91128 13.1217 9.73675 13.2518C9.56222 13.3819 9.35883 13.4679 9.1439 13.5025L8.43784 13.6166C8.38335 13.6254 8.33147 13.6462 8.28594 13.6774C8.2404 13.7085 8.20234 13.7494 8.17447 13.7971C8.14661 13.8447 8.12964 13.8979 8.12477 13.9529C8.11991 14.0079 8.12727 14.0633 8.14634 14.1151L8.61384 15.3828C8.64027 15.454 8.68454 15.5172 8.7424 15.5664L9.77228 16.445L9.12672 16.7317C9.0389 16.771 8.94069 16.7806 8.8469 16.7592L7.35503 16.4148C7.20283 16.3797 7.06142 16.3082 6.94298 16.2065C6.82454 16.1047 6.7326 15.9756 6.67509 15.8304L5.61909 13.1588L5.15365 12.6191C4.86436 12.2838 4.6864 11.867 4.6444 11.4262C4.6024 10.9853 4.69843 10.5424 4.91922 10.1585L5.01959 9.9839C5.72384 8.75936 6.59991 7.64205 7.62109 6.66602V6.66602ZM24.381 5.98265L25.3414 6.78015C26.239 7.52566 27.0066 8.41499 27.6129 9.4119L27.8109 9.73708C28.2935 10.5305 28.6692 11.3842 28.9281 12.276L29.1392 13.0034C29.2667 13.4419 29.3315 13.8963 29.3317 14.353V15.1917L28.4035 15.4715L26.3775 12.6968L26.8415 11.2503L25.3572 11.3465L24.172 10.4019L23.5512 11.3369L22.225 10.4019L21.2226 11.077L20.6932 9.93027L21.3092 9.1204L22.8355 8.13865L21.3869 7.42433L21.8682 6.42196L23.294 5.82177C23.4725 5.74671 23.6681 5.72201 23.8596 5.75038C24.0512 5.77874 24.2312 5.85908 24.3803 5.98265H24.381ZM23.877 13.9631L24.933 14.5853L26.2743 14.5083L27.9402 17.8138L28.7012 18.9317L29.2897 18.6237L29.9834 19.2981L28.9425 20.5219L27.6995 21.2451L27.9993 23.023C28.0287 23.1976 28.016 23.3766 27.9625 23.5453C27.9089 23.714 27.816 23.8675 27.6913 23.9931L26.7377 24.9542L25.9849 25.6795C25.8322 25.8268 25.6407 25.9274 25.4328 25.9696L25.0664 26.0439C24.7933 26.0994 24.5093 26.0506 24.2704 25.907C24.0316 25.7634 23.8551 25.5356 23.776 25.2684L23.1888 23.2884L24.0276 21.3125L23.3043 20.2716L24.3933 17.5732L24.2036 15.8957L23.336 15.048L23.3566 14.2512C23.3581 14.1912 23.3753 14.1326 23.4064 14.0812C23.4375 14.0299 23.4815 13.9875 23.534 13.9584C23.5865 13.9292 23.6457 13.9143 23.7057 13.915C23.7657 13.9157 23.8246 13.9321 23.8763 13.9625L23.877 13.9631ZM11.72 22.2771L13.4387 23.6878L15.7487 24.4448L17.8016 24.1464L16.8088 25.4953L15.5851 25.9971L14.3524 28.0596C14.3256 28.1041 14.2933 28.145 14.2562 28.1813L13.3074 29.1163C13.2179 29.2047 13.1033 29.2633 12.9793 29.2841C12.8553 29.3049 12.7278 29.2869 12.6144 29.2325L12.3167 29.0895C12.205 29.036 12.1122 28.9497 12.0506 28.8421C11.9891 28.7345 11.9618 28.6108 11.9723 28.4873L12.3078 24.5073L11.546 23.6548L11.72 22.2771Z" stroke="#EEB73E" stroke-linecap="round" stroke-linejoin="round"/>
<path d="M24.1716 10.4019C23.9198 10.1227 23.6514 9.85888 23.3679 9.61191M21.5591 8.96016L20.556 8.17023M19.7957 8.9801L20.9163 8.45416M5.39873 12.9044L5.14298 13.9129C5.076 14.1763 5.08338 14.4531 5.16429 14.7125L5.39873 15.4625" stroke="#EEB73E" stroke-linecap="round" stroke-linejoin="round"/>
</svg>
