<svg width="40" height="30" viewBox="0 0 40 30" fill="none" xmlns="http://www.w3.org/2000/svg">
<g clip-path="url(#clip0_33_687)">
<path d="M32.341 12.1706C31.9314 5.97375 27.5533 0 19.5238 0C18.5438 0 17.5771 0.09375 16.6495 0.278437C16.5256 0.303177 16.4168 0.375351 16.347 0.479082C16.2771 0.582814 16.252 0.709604 16.2771 0.831563C16.3023 0.953521 16.3756 1.06066 16.481 1.1294C16.5863 1.19814 16.7152 1.22286 16.839 1.19813C17.7229 1.02311 18.6223 0.935795 19.5238 0.9375C27.7029 0.9375 31.4286 7.25531 31.4286 13.125V14.5312C31.4286 14.6556 31.4787 14.7748 31.568 14.8627C31.6573 14.9506 31.7785 15 31.9048 15C32.0311 15 32.1522 14.9506 32.2415 14.8627C32.3308 14.7748 32.381 14.6556 32.381 14.5312V13.125L32.38 13.11C35.2971 13.3575 39.0476 15.8588 39.0476 21.0938C39.0476 25.5628 35.701 29.0625 31.4286 29.0625H8.57143C4.78476 29.0625 0.952381 26.325 0.952381 21.0938C0.952381 17.2556 3.33714 13.125 8.57143 13.125H10C10.1263 13.125 10.2474 13.0756 10.3367 12.9877C10.426 12.8998 10.4762 12.7806 10.4762 12.6562C10.4762 12.5319 10.426 12.4127 10.3367 12.3248C10.2474 12.2369 10.1263 12.1875 10 12.1875H8.57143V10.3125C8.57143 6.81844 10.761 4.64813 14.2857 4.64813C17.4895 4.64813 20 7.13625 20 10.3125V22.4934L16.0381 18.8747C15.9923 18.8328 15.9386 18.8003 15.8801 18.7788C15.8215 18.7574 15.7592 18.7475 15.6968 18.7498C15.5707 18.7544 15.4516 18.8081 15.3657 18.8991C15.2798 18.9901 15.2342 19.1109 15.2388 19.235C15.2435 19.3592 15.298 19.4764 15.3905 19.5609L19.6914 23.4881C19.9762 23.7675 20.2276 23.9053 20.479 23.9053C20.7276 23.9053 20.9743 23.7694 21.2486 23.4994L25.5619 19.56C25.6079 19.5182 25.645 19.468 25.6711 19.412C25.6972 19.3561 25.7119 19.2956 25.7142 19.2341C25.7165 19.1726 25.7064 19.1113 25.6845 19.0536C25.6626 18.9959 25.6294 18.9431 25.5867 18.8981C25.5443 18.8528 25.4933 18.8162 25.4364 18.7904C25.3796 18.7646 25.3182 18.7501 25.2556 18.7479C25.1931 18.7456 25.1308 18.7556 25.0722 18.7772C25.0136 18.7988 24.9599 18.8316 24.9143 18.8738L20.9524 22.4934V10.3125C20.9524 6.61031 18.0238 3.71062 14.2857 3.71062C10.2362 3.71062 7.61905 6.30188 7.61905 10.3125V12.2353C2.61429 12.7116 0 16.9256 0 21.0938C0 25.4109 3.00381 30 8.57143 30H31.4286C36.2352 30 40 26.0878 40 21.0938C40 15.1838 35.66 12.3956 32.341 12.1706Z" fill="#EEB73E"/>
</g>
<defs>
<clipPath id="clip0_33_687">
<rect width="40" height="30" fill="white"/>
</clipPath>
</defs>
</svg>
