<svg width="33" height="33" viewBox="0 0 33 33" fill="none" xmlns="http://www.w3.org/2000/svg">
<g clip-path="url(#clip0_25_423)">
<path d="M14.9694 4.62917C16.955 4.62735 18.8966 5.2145 20.5484 6.31633C22.2003 7.41816 23.4883 8.98517 24.2494 10.8191C25.0105 12.6531 25.2106 14.6716 24.8243 16.6193C24.4381 18.5669 23.4828 20.3563 22.0794 21.761C20.676 23.1657 18.8875 24.1226 16.9402 24.5106C14.9928 24.8987 12.9742 24.7004 11.1395 23.941C9.30486 23.1815 7.73668 21.895 6.63334 20.2442C5.52999 18.5933 4.94107 16.6523 4.94107 14.6667C4.95311 12.0099 6.01324 9.46515 7.89105 7.58561C9.76887 5.70608 12.3126 4.64363 14.9694 4.62917ZM14.9694 2.75C12.6125 2.75 10.3085 3.4489 8.34886 4.75832C6.38918 6.06774 4.86179 7.92887 3.95984 10.1064C3.0579 12.2838 2.82191 14.6799 3.28172 16.9915C3.74152 19.3031 4.87647 21.4264 6.54305 23.093C8.20963 24.7596 10.333 25.8946 12.6446 26.3544C14.9562 26.8142 17.3522 26.5782 19.5297 25.6762C21.7072 24.7743 23.5683 23.2469 24.8778 21.2872C26.1872 19.3275 26.8861 17.0236 26.8861 14.6667C26.8861 11.5062 25.6306 8.47512 23.3958 6.24031C21.161 4.0055 18.1299 2.75 14.9694 2.75Z" fill="#EEB73E"/>
<path d="M32.0839 30.5158L25.328 23.7142L24.0264 25.0067L30.7822 31.8083C30.8671 31.8938 30.9679 31.9617 31.0791 32.0082C31.1902 32.0547 31.3093 32.0788 31.4298 32.0793C31.5502 32.0797 31.6696 32.0564 31.781 32.0107C31.8925 31.965 31.9938 31.8978 32.0793 31.8129C32.1648 31.7281 32.2327 31.6272 32.2792 31.5161C32.3256 31.405 32.3498 31.2858 32.3502 31.1653C32.3506 31.0449 32.3273 30.9255 32.2816 30.8141C32.2359 30.7027 32.1687 30.6013 32.0839 30.5158Z" fill="#EEB73E"/>
</g>
<defs>
<clipPath id="clip0_25_423">
<rect width="33" height="33" fill="white"/>
</clipPath>
</defs>
</svg>
